<svg xmlns="http://www.w3.org/2000/svg" class="icon" viewBox="0 0 1024 1024" width="64" height="64" t="1576583384404" p-id="1842" version="1.1"><path d="M 512 116.492 c -218.433 0 -395.508 177.075 -395.508 395.508 S 293.567 907.508 512 907.508 S 907.508 730.433 907.508 512 S 730.433 116.492 512 116.492 Z m 0 760.117 c -201.367 0 -364.609 -163.241 -364.609 -364.609 S 310.632 147.391 512 147.391 S 876.609 310.632 876.609 512 S 713.368 876.609 512 876.609 Z" p-id="1843" /><path d="M 512 694.761 c -103.67 0 -187.713 -84.041 -187.713 -187.713 h -30.899 c 0 120.735 97.875 218.611 218.611 218.611 S 730.61 627.784 730.61 507.048 h -30.899 c 0 103.67 -84.041 187.713 -187.713 187.713 Z" p-id="1844" /><path d="M 293.389 507.049 c 0 8.533 6.916 15.449 15.449 15.449 s 15.449 -6.916 15.449 -15.449 s -6.916 -15.449 -15.449 -15.449 s -15.449 6.916 -15.449 15.449 Z M 699.713 507.049 c 0 8.533 6.916 15.449 15.449 15.449 s 15.449 -6.916 15.449 -15.449 s -6.916 -15.449 -15.449 -15.449 s -15.449 6.916 -15.449 15.449 Z M 324.287 381.838 c 0 19.199 15.563 34.762 34.762 34.762 s 34.762 -15.563 34.762 -34.762 c 0 -19.199 -15.563 -34.762 -34.762 -34.762 c -19.199 0 -34.762 15.563 -34.762 34.762 Z M 630.189 381.838 c 0 19.199 15.563 34.762 34.762 34.762 s 34.762 -15.563 34.762 -34.762 c 0 -19.199 -15.563 -34.762 -34.762 -34.762 c -19.199 0 -34.762 15.563 -34.762 34.762 Z" p-id="1845" /></svg>