<svg xmlns="http://www.w3.org/2000/svg" class="icon" viewBox="0 0 1024 1024" width="64" height="64" t="1576583447797" p-id="3845" version="1.1"><path d="M 977.92 312.832 C 926.72 190.464 830.464 93.184 708.608 40.96 C 583.168 -12.288 440.832 -12.288 314.88 40.96 c -60.416 25.6 -114.688 62.976 -160.768 109.568 C 58.88 246.784 5.632 376.832 6.144 512 c -0.512 204.8 121.344 389.632 309.248 471.04 c 62.464 26.624 129.024 40.448 197.12 39.936 c 134.656 0 263.168 -53.76 357.376 -149.504 c 46.592 -46.592 83.456 -101.888 108.544 -162.304 c 52.736 -127.488 52.736 -270.848 -0.512 -398.336 Z m -266.24 -45.056 c 53.76 0 97.792 44.544 97.792 99.328 s -44.032 99.328 -97.792 99.328 c -54.272 0 -98.304 -44.544 -98.304 -99.328 s 44.544 -99.328 98.304 -99.328 Z m -378.88 0 c 53.76 0 97.792 44.544 97.792 99.328 S 386.56 466.432 332.8 466.432 c -54.272 0 -98.304 -44.544 -98.304 -99.328 S 279.04 267.776 332.8 267.776 Z m 389.12 522.752 c -46.08 -68.096 -122.368 -109.056 -204.8 -109.056 c -81.92 0 -158.72 40.96 -204.8 109.056 l -97.28 -66.048 c 68.096 -100.864 180.736 -161.28 302.08 -161.28 c 121.344 0 234.496 60.416 302.08 161.28 l -97.28 66.048 Z" p-id="3846" /></svg>